<?xml version="1.0" standalone="no"?>
<!DOCTYPE svg PUBLIC "-//W3C//DTD SVG 20010904//EN"
 "http://www.w3.org/TR/2001/REC-SVG-20010904/DTD/svg10.dtd">
<svg version="1.0" xmlns="http://www.w3.org/2000/svg"
 width="320.000000pt" height="320.000000pt" viewBox="0 0 320.000000 320.000000"
 preserveAspectRatio="xMidYMid meet">
<metadata>
Created by potrace 1.11, written by Peter Selinger 2001-2013
</metadata>
<g transform="translate(0.000000,320.000000) scale(0.100000,-0.100000)"
fill="#000000" stroke="none">
<path d="M2549 2936 c-2 -2 -24 -6 -49 -9 -104 -12 -183 -43 -225 -87 -22 -23
-26 -35 -23 -62 4 -26 -2 -42 -33 -83 -77 -102 -119 -235 -113 -353 l4 -63
-45 31 c-51 35 -162 91 -215 109 -26 9 -46 28 -80 78 -169 251 -463 403 -774
401 -278 -2 -528 -122 -716 -344 -87 -103 -174 -294 -195 -429 -11 -71 -13
-228 -4 -290 36 -234 168 -463 348 -600 42 -32 50 -45 70 -108 40 -124 143
-307 206 -367 l23 -22 -23 -49 c-67 -145 38 -320 196 -328 67 -3 125 15 168
54 l38 35 18 -40 c39 -86 121 -140 215 -140 81 0 141 31 193 101 22 29 33 35
69 37 73 4 237 51 325 92 140 65 289 181 370 287 17 22 36 33 63 38 45 8 108
50 137 92 47 67 56 159 23 232 -11 24 -20 46 -20 50 0 3 25 6 55 7 68 1 137
40 180 104 41 62 48 158 15 225 -39 82 -124 135 -214 135 -28 0 -36 4 -36 18
0 9 -11 49 -24 87 -14 39 -23 71 -22 72 1 2 18 -2 37 -8 60 -17 180 -19 248
-3 240 55 413 286 405 540 -3 115 -39 218 -110 316 -31 41 -33 49 -23 72 39
84 -121 162 -347 171 -61 3 -113 3 -115 1z"/>
</g>
</svg>
