<?xml version="1.0" encoding="UTF-8" standalone="no"?>
<svg
   xmlns:dc="http://purl.org/dc/elements/1.1/"
   xmlns:cc="http://creativecommons.org/ns#"
   xmlns:rdf="http://www.w3.org/1999/02/22-rdf-syntax-ns#"
   xmlns:svg="http://www.w3.org/2000/svg"
   xmlns="http://www.w3.org/2000/svg"
   xmlns:sodipodi="http://sodipodi.sourceforge.net/DTD/sodipodi-0.dtd"
   xmlns:inkscape="http://www.inkscape.org/namespaces/inkscape"
   inkscape:export-ydpi="96"
   inkscape:export-xdpi="96"
   inkscape:export-filename="C:\Users\dekap\Dropbox\Dennis-Alex\Youtube\channel-art\imakappa-channel-logo-2020-ver3.png"
   sodipodi:docname="imakappa-channel-logo-2020.svg"
   inkscape:version="1.0 (4035a4fb49, 2020-05-01)"
   id="svg856"
   version="1.1"
   viewBox="0 0 800 800"
   height="800"
   width="800">
  <title
     id="title858">ImAKappa Channel Logo 2020</title>
  <defs
     id="defs850" />
  <sodipodi:namedview
     inkscape:window-maximized="1"
     inkscape:window-y="-8"
     inkscape:window-x="-8"
     inkscape:window-height="705"
     inkscape:window-width="1366"
     units="px"
     showgrid="false"
     inkscape:document-rotation="0"
     inkscape:current-layer="g72"
     inkscape:document-units="px"
     inkscape:cy="400"
     inkscape:cx="400"
     inkscape:zoom="0.64375"
     inkscape:pageshadow="2"
     inkscape:pageopacity="0.0"
     borderopacity="1.0"
     bordercolor="#666666"
     pagecolor="#ffffff"
     id="base" />
  <metadata
     id="metadata853">
    <rdf:RDF>
      <cc:Work
         rdf:about="">
        <dc:format>image/svg+xml</dc:format>
        <dc:type
           rdf:resource="http://purl.org/dc/dcmitype/StillImage" />
        <dc:title>ImAKappa Channel Logo 2020</dc:title>
      </cc:Work>
    </rdf:RDF>
  </metadata>
  <g
     id="layer1"
     inkscape:groupmode="layer"
     inkscape:label="Layer 1">
    <g
       id="g72"
       transform="translate(6)">
      <path
         d="m 687.24792,441.05289 a 58.734887,58.734887 0 0 1 -58.73489,58.73489 58.734887,58.734887 0 0 1 -58.73488,-58.73489 58.734887,58.734887 0 0 1 58.73488,-58.73487 58.734887,58.734887 0 0 1 58.73489,58.73487"
         style="fill:#00be00;fill-opacity:1;stroke-width:1.1634"
         id="path868-6" />
      <path
         d="m 387.76774,674.43367 a 58.734887,58.734887 0 0 1 -58.7349,58.73489 58.734887,58.734887 0 0 1 -58.73488,-58.73489 58.734887,58.734887 0 0 1 58.73488,-58.7349 58.734887,58.734887 0 0 1 58.7349,58.7349"
         style="fill:#00be00;fill-opacity:1;stroke-width:1.1634"
         id="path868-0" />
      <path
         d="M 626.70584,439.24565 A 260.24073,260.24073 0 0 1 366.46511,699.48638 260.24073,260.24073 0 0 1 106.22438,439.24565 260.24073,260.24073 0 0 1 366.46511,179.00491 260.24073,260.24073 0 0 1 626.70584,439.24565"
         style="fill:#fffa00;fill-opacity:1;stroke-width:1.48258"
         id="path862" />
      <path
         d="M 780.55636,210.11182 A 130.23847,134.63845 0 0 1 650.31789,344.75028 130.23847,134.63845 0 0 1 520.0794,210.11182 130.23847,134.63845 0 0 1 650.31789,75.473378 130.23847,134.63845 0 0 1 780.55636,210.11182"
         style="fill:#00da00;fill-opacity:1;stroke-width:1.3531"
         id="path860" />
      <path
         d="M 478.26467,308.08608 A 233.13234,233.13234 0 0 1 245.13234,541.21843 233.13234,233.13234 0 0 1 12.000015,308.08608 233.13234,233.13234 0 0 1 245.13234,74.953755 233.13234,233.13234 0 0 1 478.26467,308.08608"
         style="fill:#008000;fill-opacity:1;stroke-width:1.41586"
         id="path864" />
      <path
         d="m 748.62587,103.37598 a 96.460757,37.97793 0 0 1 -96.46074,37.97791 96.460757,37.97793 0 0 1 -96.46078,-37.97791 96.460757,37.97793 0 0 1 96.46078,-37.977943 96.460757,37.97793 0 0 1 96.46074,37.977943"
         style="fill:#00d5ff;fill-opacity:1;stroke-width:1.24977"
         id="path866" />
      <path
         d="m 282.29347,651.82084 a 58.734887,58.734887 0 0 1 -58.73488,58.73489 58.734887,58.734887 0 0 1 -58.7349,-58.73489 58.734887,58.734887 0 0 1 58.7349,-58.73489 58.734887,58.734887 0 0 1 58.73488,58.73489"
         style="fill:#00da00;fill-opacity:1;stroke-width:1.1634"
         id="path868" />
      <path
         d="m 629.41671,536.83589 a 58.734887,58.734887 0 0 1 -58.73488,58.73488 58.734887,58.734887 0 0 1 -58.73489,-58.73488 58.734887,58.734887 0 0 1 58.73489,-58.73489 58.734887,58.734887 0 0 1 58.73488,58.73489"
         style="fill:#00da00;fill-opacity:1;stroke-width:1.1634"
         id="path868-2" />
      <path
         id="path911"
         d="m 237.40196,397.18843 c -18.87412,-1.09699 -38.14354,-12.93503 -49.66836,-26.52163 -13.36158,-15.75401 -18.86978,-37.17199 -17.45956,-54.76043 4.14533,-51.68085 60.34765,-82.22752 81.15175,-104.80086 13.92565,-15.1112 16.8457,-22.47637 19.95565,-30.24841 6.02188,-15.04312 6.99193,-32.66776 -4.9467,-33.98387 -11.39844,-1.25634 -20.77659,16.66908 -24.96373,28.91931 -3.76644,11.01882 -6.2699,22.07384 -4.00377,38.68065 1.01832,7.46074 29.04816,215.71455 29.52158,218.94323 4.72057,32.261 -13.72861,45.61002 -32.56204,47.98448 -40.67,5.12734 -53.71943,-36.20188 -35.49104,-51.89798 14.0328,-12.08544 34.44858,-1.70992 33.34532,18.15886 -0.97662,17.59861 -18.23272,18.11696 -22.64139,17.71448 6.76838,12.13896 57.7951,18.48027 49.95937,-36.36272 -1.10096,-7.70674 -27.00234,-203.40787 -27.63649,-207.79484 -4.75169,-32.78503 -5.47577,-58.73621 11.60607,-89.02081 6.30624,-11.17954 16.27235,-18.39632 21.16463,-17.45233 1.07513,0.20761 2.14643,0.60238 2.99671,1.47985 13.10305,13.50116 17.12224,43.44117 15.68744,60.63867 -1.46999,17.61015 -2.28919,35.83998 -19.79927,57.10014 -6.77636,8.22709 -27.45408,26.35081 -39.31049,36.76371 -16.65893,14.63048 -28.7412,27.4077 -35.27965,42.82294 -7.34696,17.32492 -8.59082,39.1324 8.00353,58.48284 9.54566,10.93284 25.38365,18.69025 38.71252,18.85528 37.06193,0.46023 47.88604,-17.80849 48.23063,-38.4982 0.56932,-34.06781 -40.55849,-46.94785 -57.46789,-23.52317 -9.80425,13.58254 -5.49486,27.8783 1.08971,34.68027 2.26009,2.33424 4.78468,4.11217 7.17307,5.10336 0.86555,0.35904 2.90148,1.30595 2.32366,2.69182 -0.48073,1.15323 -1.41439,1.218 -2.26473,1.11619 -10.6631,-1.27884 -22.47058,-11.47113 -25.37351,-29.00179 -4.23059,-25.5516 18.31817,-55.86369 50.50523,-50.90625 21.07191,3.24534 40.63665,21.37742 38.92096,55.1412 -1.47128,28.93664 -25.46034,51.58819 -61.47987,49.4946 z"
         style="fill:#004800;fill-opacity:1;stroke-width:0.144786" />
    </g>
  </g>
</svg>
