<?xml version="1.0" encoding="UTF-8" standalone="no"?>
<svg
   xmlns:dc="http://purl.org/dc/elements/1.1/"
   xmlns:cc="http://creativecommons.org/ns#"
   xmlns:rdf="http://www.w3.org/1999/02/22-rdf-syntax-ns#"
   xmlns:svg="http://www.w3.org/2000/svg"
   xmlns="http://www.w3.org/2000/svg"
   xmlns:sodipodi="http://sodipodi.sourceforge.net/DTD/sodipodi-0.dtd"
   xmlns:inkscape="http://www.inkscape.org/namespaces/inkscape"
   inkscape:export-ydpi="96"
   inkscape:export-xdpi="96"
   inkscape:export-filename="C:\Users\dekap\Dropbox\Dennis-Alex\Youtube\channel-art\imakappa-channel-logo-2020-ver3.png"
   sodipodi:docname="imakappa-channel-logo-2020.svg"
   inkscape:version="1.0 (4035a4fb49, 2020-05-01)"
   id="svg856"
   version="1.1"
   viewBox="0 0 800 800"
   height="800"
   width="800">
  <title
     id="title858">ImAKappa Channel Logo 2020</title>
  <defs
     id="defs850" />
  <sodipodi:namedview
     inkscape:window-maximized="1"
     inkscape:window-y="-8"
     inkscape:window-x="-8"
     inkscape:window-height="705"
     inkscape:window-width="1366"
     units="px"
     showgrid="false"
     inkscape:document-rotation="0"
     inkscape:current-layer="g72"
     inkscape:document-units="px"
     inkscape:cy="400"
     inkscape:cx="400"
     inkscape:zoom="0.64375"
     inkscape:pageshadow="2"
     inkscape:pageopacity="0.0"
     borderopacity="1.0"
     bordercolor="#666666"
     pagecolor="#ffffff"
     id="base" />
  <metadata
     id="metadata853">
    <rdf:RDF>
      <cc:Work
         rdf:about="">
        <dc:format>image/svg+xml</dc:format>
        <dc:type
           rdf:resource="http://purl.org/dc/dcmitype/StillImage" />
        <dc:title>ImAKappa Channel Logo 2020</dc:title>
      </cc:Work>
    </rdf:RDF>
  </metadata>
  <g
     id="layer1"
     inkscape:groupmode="layer"
     inkscape:label="Layer 1">
    <g
       id="g72"
       transform="translate(6)">
      <path
         d="m 611.2025,378.14953 a 45.499432,45.499432 0 0 1 -45.49943,45.49943 45.499432,45.499432 0 0 1 -45.49942,-45.49943 45.499432,45.499432 0 0 1 45.49942,-45.49942 45.499432,45.499432 0 0 1 45.49943,45.49942"
         style="fill:#00be00;fill-opacity:1;stroke-width:0.901239"
         id="path868-6" />
      <path
         d="m 379.20788,558.93975 a 45.499432,45.499432 0 0 1 -45.49944,45.49943 45.499432,45.499432 0 0 1 -45.49943,-45.49943 45.499432,45.499432 0 0 1 45.49943,-45.49944 45.499432,45.499432 0 0 1 45.49944,45.49944"
         style="fill:#00be00;fill-opacity:1;stroke-width:0.901239"
         id="path868-0" />
      <path
         d="M 564.30312,376.74953 A 201.59749,201.59749 0 0 1 362.70563,578.34702 201.59749,201.59749 0 0 1 161.10815,376.74953 201.59749,201.59749 0 0 1 362.70563,175.15205 201.59749,201.59749 0 0 1 564.30312,376.74953"
         style="fill:#fffa00;fill-opacity:1;stroke-width:1.14849"
         id="path862" />
      <path
         d="M 683.48461,199.24925 A 100.89024,104.29871 0 0 1 582.59437,303.54797 100.89024,104.29871 0 0 1 481.70412,199.24925 100.89024,104.29871 0 0 1 582.59437,94.95055 100.89024,104.29871 0 0 1 683.48461,199.24925"
         style="fill:#00da00;fill-opacity:1;stroke-width:1.04819"
         id="path860" />
      <path
         d="M 449.31202,275.14577 A 180.59776,180.59776 0 0 1 268.71427,455.74354 180.59776,180.59776 0 0 1 88.11652,275.14577 180.59776,180.59776 0 0 1 268.71427,94.54802 180.59776,180.59776 0 0 1 449.31202,275.14577"
         style="fill:#008000;fill-opacity:1;stroke-width:1.0968"
         id="path864" />
      <path
         d="m 658.74941,116.56551 a 74.724068,29.419896 0 0 1 -74.72406,29.41989 74.724068,29.419896 0 0 1 -74.72409,-29.41989 74.724068,29.419896 0 0 1 74.72409,-29.4199 74.724068,29.419896 0 0 1 74.72406,29.4199"
         style="fill:#00d5ff;fill-opacity:1;stroke-width:0.968138"
         id="path866" />
      <path
         d="m 297.50142,541.42254 a 45.499432,45.499432 0 0 1 -45.49943,45.49944 45.499432,45.499432 0 0 1 -45.49944,-45.49944 45.499432,45.499432 0 0 1 45.49944,-45.49943 45.499432,45.499432 0 0 1 45.49943,45.49943"
         style="fill:#00da00;fill-opacity:1;stroke-width:0.901239"
         id="path868" />
      <path
         d="m 566.40312,452.34857 a 45.499432,45.499432 0 0 1 -45.49943,45.49943 45.499432,45.499432 0 0 1 -45.49944,-45.49943 45.499432,45.499432 0 0 1 45.49944,-45.49944 45.499432,45.499432 0 0 1 45.49943,45.49944"
         style="fill:#00da00;fill-opacity:1;stroke-width:0.901239"
         id="path868-2" />
      <g
         transform="matrix(1.0323217,0,0,1.0323217,-25.559147,-19.333836)"
         style="font-style:normal;font-variant:normal;font-weight:normal;font-stretch:normal;font-size:125.715px;line-height:1.25;font-family:'Trebuchet MS';-inkscape-font-specification:'Trebuchet MS';letter-spacing:0px;word-spacing:0px;fill:#000000;fill-opacity:1;stroke:none;stroke-width:0.873021"
         id="text899"
         aria-label="ImAKappa">
        <path
           id="path35"
           style="stroke-width:0.873021"
           d="m 139.69586,678.05139 v -89.92796 h 12.27685 v 89.92796 z" />
        <path
           id="path37"
           style="stroke-width:0.873021"
           d="m 247.85495,678.05139 v -41.61854 q 0,-15.53022 -13.44316,-15.53022 -4.23551,0 -7.91857,2.63952 -3.68305,2.57814 -5.03351,5.8929 v 48.61634 H 209.7967 v -46.71343 q 0,-4.84936 -3.68306,-7.61165 -3.62167,-2.82368 -9.63733,-2.82368 -3.4989,0 -7.48888,2.70091 -3.92859,2.70091 -5.58597,5.95427 v 48.49358 h -11.66301 v -65.74256 h 7.61165 l 3.86721,7.61165 q 6.75227,-8.83933 16.88067,-8.83933 14.11839,0 19.76574,8.77795 1.9643,-3.74444 7.30473,-6.2612 5.34043,-2.51675 10.98779,-2.51675 10.18979,0 15.77575,6.07704 5.58597,6.01566 5.58597,16.94206 v 43.95114 z" />
        <path
           id="path39"
           style="stroke-width:0.873021"
           d="m 328.0842,678.05139 -6.19981,-18.96774 h -33.45443 l -6.62951,18.96774 h -13.75007 l 36.52364,-91.15565 h 3.25337 l 33.88412,91.15565 z m -22.46665,-67.58409 -13.93423,39.59286 h 26.70216 z" />
        <path
           id="path41"
           style="stroke-width:0.873021"
           d="m 400.76318,678.05139 -25.3517,-41.373 -11.96994,17.00344 v 24.36956 h -12.27685 v -89.92796 h 12.27685 v 48.92327 l 33.39305,-48.92327 h 13.68869 l -26.88631,38.97901 30.69214,50.94895 z" />
        <path
           id="path43"
           style="stroke-width:0.873021"
           d="m 459.81485,670.50113 q -6.99781,8.77795 -21.42311,8.77795 -7.73442,0 -13.44316,-5.58597 -5.64735,-5.64736 -5.64735,-13.99562 0,-10.00563 8.71657,-16.88067 8.77795,-6.93643 22.34387,-6.93643 3.68306,0 8.34826,1.596 0,-15.95992 -14.24115,-15.95992 -10.9264,0 -16.81929,5.89289 l -4.91074,-9.7601 q 3.31475,-2.7009 9.14626,-4.60382 5.89289,-1.96429 11.23332,-1.96429 14.30253,0 20.74788,6.50673 6.50674,6.50673 6.50674,20.6865 v 23.57156 q 0,8.65519 5.15628,11.54025 v 5.8315 q -7.12058,0 -10.68087,-2.02568 -3.4989,-2.02568 -5.03351,-6.69088 z m -1.10492,-24.73787 q -5.52458,-1.22768 -7.73441,-1.22768 -8.83934,0 -14.42531,4.54243 -5.58597,4.54244 -5.58597,10.74225 0,10.25118 12.0927,10.25118 8.83934,0 15.65299,-8.40965 z" />
        <path
           id="path45"
           style="stroke-width:0.873021"
           d="m 500.38988,674.42972 v 29.40307 h -11.66302 v -91.52396 h 11.66302 v 5.40182 q 6.6295,-6.6295 16.02129,-6.6295 13.99562,0 21.79142,8.71656 7.7958,8.71657 7.7958,25.53586 0,14.97777 -7.85718,24.49233 -7.85719,9.45318 -22.71219,9.45318 -4.17413,0 -8.9621,-1.47323 -4.72659,-1.47322 -6.07704,-3.37613 z m 0,-47.94112 v 38.30379 q 1.10491,1.65737 4.6652,3.19198 3.56029,1.47322 6.93642,1.47322 21.73004,0 21.73004,-24.55371 0,-12.46101 -5.15628,-18.23113 -5.15628,-5.77012 -16.51237,-5.77012 -2.45537,0 -6.01566,1.71876 -3.56029,1.71876 -5.64735,3.86721 z" />
        <path
           id="path47"
           style="stroke-width:0.873021"
           d="m 570.36793,674.42972 v 29.40307 h -11.66301 v -91.52396 h 11.66301 v 5.40182 q 6.62951,-6.6295 16.0213,-6.6295 13.99562,0 21.79142,8.71656 7.7958,8.71657 7.7958,25.53586 0,14.97777 -7.85719,24.49233 -7.85718,9.45318 -22.71218,9.45318 -4.17413,0 -8.9621,-1.47323 -4.72659,-1.47322 -6.07705,-3.37613 z m 0,-47.94112 v 38.30379 q 1.10492,1.65737 4.66521,3.19198 3.56029,1.47322 6.93642,1.47322 21.73004,0 21.73004,-24.55371 0,-12.46101 -5.15628,-18.23113 -5.15628,-5.77012 -16.51237,-5.77012 -2.45537,0 -6.01566,1.71876 -3.56029,1.71876 -5.64736,3.86721 z" />
        <path
           id="path49"
           style="stroke-width:0.873021"
           d="m 665.8205,670.50113 q -6.99781,8.77795 -21.42311,8.77795 -7.73442,0 -13.44316,-5.58597 -5.64735,-5.64736 -5.64735,-13.99562 0,-10.00563 8.71656,-16.88067 8.77795,-6.93643 22.34388,-6.93643 3.68306,0 8.34826,1.596 0,-15.95992 -14.24115,-15.95992 -10.9264,0 -16.81929,5.89289 l -4.91075,-9.7601 q 3.31476,-2.7009 9.14626,-4.60382 5.89289,-1.96429 11.23332,-1.96429 14.30254,0 20.74789,6.50673 6.50673,6.50673 6.50673,20.6865 v 23.57156 q 0,8.65519 5.15628,11.54025 v 5.8315 q -7.12057,0 -10.68086,-2.02568 -3.49891,-2.02568 -5.03351,-6.69088 z m -1.10492,-24.73787 q -5.52458,-1.22768 -7.73442,-1.22768 -8.83933,0 -14.4253,4.54243 -5.58597,4.54244 -5.58597,10.74225 0,10.25118 12.0927,10.25118 8.83934,0 15.65299,-8.40965 z" />
      </g>
      <path
         id="path911"
         d="m 262.72587,344.16959 c -14.62099,-0.84979 -29.54818,-10.02022 -38.47598,-20.54518 -10.35065,-12.20397 -14.61762,-28.79557 -13.52518,-42.4206 3.2112,-40.03497 46.74877,-63.69817 62.86482,-81.18479 10.78761,-11.706 13.04966,-17.41149 15.45881,-23.43216 4.66489,-11.65327 5.41635,-25.30633 -3.83201,-26.32587 -8.82989,-0.97323 -16.09474,12.91283 -19.33834,22.40257 -2.9177,8.53581 -4.85703,17.09967 -3.10155,29.96426 0.78885,5.77953 22.50237,167.10494 22.86912,169.60606 3.65682,24.99123 -10.63498,35.33215 -25.22444,37.17155 -31.50532,3.97193 -41.61417,-28.04407 -27.49341,-40.20318 10.87062,-9.36208 26.68586,-1.32459 25.83122,14.06691 -0.75655,13.6329 -14.12412,14.03444 -17.53934,13.72266 5.24318,9.40353 44.77142,14.31588 38.70142,-28.16866 -0.85287,-5.97009 -20.91758,-157.57148 -21.40882,-160.96988 -3.68094,-25.39718 -4.24185,-45.50046 8.99073,-68.96065 4.88517,-8.66032 12.6055,-14.25085 16.39534,-13.51958 0.83286,0.16082 1.66275,0.46663 2.32143,1.14638 10.15037,10.45877 13.26387,33.65203 12.15239,46.9742 -1.13874,13.64185 -1.77333,27.76372 -15.33766,44.23307 -5.24936,6.37318 -21.26751,20.41286 -30.45217,28.47929 -12.90496,11.33361 -22.26459,21.23159 -27.32965,33.17312 -5.69138,13.42089 -6.65494,30.31421 6.2,45.30418 7.39462,8.46921 19.66363,14.47855 29.98895,14.60639 28.71031,0.35652 37.09529,-13.79548 37.36223,-29.82293 0.44102,-26.39089 -31.41895,-36.36852 -44.51795,-18.2224 -7.59493,10.52181 -4.25663,21.59614 0.84416,26.86533 1.75079,1.80824 3.70649,3.18553 5.55667,3.95336 0.67051,0.27814 2.24766,1.01167 1.80004,2.08524 -0.3724,0.89336 -1.09567,0.94354 -1.75439,0.86467 -8.26025,-0.99066 -17.40701,-8.8862 -19.65578,-22.46646 -3.27727,-19.79375 14.1903,-43.27524 39.12426,-39.43492 16.32352,2.51403 31.47949,16.56018 30.15042,42.71555 -1.13974,22.41599 -19.72304,39.96319 -47.62585,38.34138 z"
         style="fill:#004800;fill-opacity:1;stroke-width:0.112159" />
    </g>
  </g>
</svg>
